<svg id="Layer_1" data-name="Layer 1" xmlns="http://www.w3.org/2000/svg" viewBox="0 0 519.09 879.59"><title>icon_blacktransp</title><path d="M292,.63v25.2c5.94-1.59,12-3.21,18.1-4.86.92-.25,1.88-1,2.7-.81a22,22,0,0,1,4.06,1.58c-.94,1-1.69,2.66-2.84,3-6.39,2-12.84,3.78-19.35,5.27-2.92.67-3.77,1.88-3.7,4.84.78,31.88.73,63.79,2.33,95.62,1.07,21.29,4.41,42.48,6.78,63.7q5,44.91,10.11,89.82,4.47,39.92,8.86,79.85c.33,3.05,1.7,4.18,4.57,5C399.21,389.11,455.33,434,491.4,503.37,509.4,538,518.23,575,519,614.13c1.31,65.63-19.31,123.33-60.87,173.86-1.47,1.78-2.12,4.57-2.34,7-1.81,19.82-3.43,39.67-5.17,60.18-9.37-1-18.5-1.87-27.61-2.84-12-1.28-24.08-2.7-36.15-3.81a11.29,11.29,0,0,0-5.78,1.56,259.89,259.89,0,0,1-251.72-4.86c-1-.6-2-1.33-3.9-2.62,11.3-.78,21.54-1.53,31.78-2.19l94-6c2.88-.17,4.22-.81,4.28-4.07.5-25.34,1.35-50.68,1.63-76,.06-4.64-1.8-9.35-3.08-13.94-.75-2.67-.59-4.72,2-6.07,7.1-3.72,8.42-9.55,8.35-17.3-.3-36.36.16-72.74.24-109.11,0-11.47-.13-22.94-.55-34.4-.12-3.28.55-5.6,3.52-7,3.85-1.8,4.7-4.85,4.8-8.92,1.26-54.34,2.72-108.68,4.05-163,.82-33.63,1.46-67.26,2.27-100.89.85-35.7,1.34-71.42,2.94-107.08.68-15.07,4.15-30,5.73-45a238.48,238.48,0,0,0,.84-26.73c-.18-28.23-.76-56.46-.8-84.68,0-9.85,1.07-19.71,1.65-29.56Z" transform="translate(0.02 -0.63)"/><path d="M0,600.91c1.23-8.28,2.31-16.58,3.73-24.83,8.77-50.7,30.69-95,65.79-132.52,42.77-45.74,95.51-72.45,157.55-80.79,5.48-.74,11-1,17.19-1.57-1.85,11-3.57,21.31-5.31,31.6q-13.69,80.82-27.41,161.64c-.91,5.34-2.07,10.65-2.71,16-.34,2.9-1.6,4-4.3,4.72-20,5.28-40,10.72-60,16.13-1.48.4-2.95.86-5.39,1.57,7.32,4.23,14,7.86,20.38,11.93a7,7,0,0,1,2.92,5.12c-1.61,43-3.48,86-5.09,129-.14,3.69-1.61,4.77-4.75,5.61-23.55,6.27-47,12.68-70.57,19.06-.87.24-1.69.64-3.32,1.27,5.18,2.64,9.73,4.79,14.1,7.28,1.25.72,2.76,2.39,2.78,3.65.19,15,.12,30,.12,45.63a33.89,33.89,0,0,1-3.18-2.13C40.88,774.87,10.3,719.06,1.73,651.36,1.21,647.29.56,643.24,0,639.18Z" transform="translate(0.02 -0.63)"/><path d="M291.43,25.58c1.39,3.54.65,5.49-3,6.34-6.55,1.53-13,3.35-19.55,5a6.39,6.39,0,0,1-3,.38,19.31,19.31,0,0,1-3.72-2c.92-.87,1.71-2.24,2.79-2.55C273.72,30.29,282.54,28,291.43,25.58Z" transform="translate(0.02 -0.63)"/></svg>